<svg width="80" height="80" viewBox="0 0 80 80" fill="none" xmlns="http://www.w3.org/2000/svg">
<path fill-rule="evenodd" clip-rule="evenodd" d="M12.952 17.3011L23.5972 23.8744C24.1684 24.2271 24.5161 24.8507 24.5161 25.5222V55.5513C24.5161 56.2323 24.1586 56.8632 23.5745 57.2129L12.9293 63.5857C12.0121 64.1349 10.8235 63.8361 10.2746 62.9184C10.0949 62.6179 10 62.2743 10 61.9241V18.9489C10 17.8795 10.8665 17.0126 11.9355 17.0126C12.2945 17.0126 12.6465 17.1125 12.952 17.3011Z" fill="#9055FD"/>
<path opacity="0.077704" fill-rule="evenodd" clip-rule="evenodd" d="M10 32.6638L24.5161 40.9912V49.1549L10 32.6638Z" fill="black"/>
<path opacity="0.077704" fill-rule="evenodd" clip-rule="evenodd" d="M10 32.6638L24.5161 40.7791V45.7663L10 32.6638Z" fill="black"/>
<path fill-rule="evenodd" clip-rule="evenodd" d="M67.0504 17.2938L56.4053 23.845C55.8327 24.1974 55.4839 24.8218 55.4839 25.4943V55.5516C55.4839 56.2325 55.8414 56.8635 56.4255 57.2132L67.0707 63.586C67.9879 64.1351 69.1765 63.8364 69.7254 62.9187C69.9051 62.6182 70 62.2746 70 61.9244V18.9431C70 17.8737 69.1335 17.0067 68.0645 17.0067C67.7065 17.0067 67.3554 17.1061 67.0504 17.2938Z" fill="#9055FD"/>
<path opacity="0.077704" fill-rule="evenodd" clip-rule="evenodd" d="M70 32.6638L55.4839 40.9736V49.4014L70 32.6638Z" fill="black"/>
<path opacity="0.077704" fill-rule="evenodd" clip-rule="evenodd" d="M70 32.6638L55.4839 40.772V46.0128L70 32.6638Z" fill="black"/>
<path fill-rule="evenodd" clip-rule="evenodd" d="M12.9469 17.2854L40 33.8738V49.8488L10 32.6592V18.9364C10 17.8669 10.8665 17 11.9355 17C12.2925 17 12.6425 17.0988 12.9469 17.2854Z" fill="#9055FD"/>
<path fill-rule="evenodd" clip-rule="evenodd" d="M12.9469 17.2854L40 33.8738V49.8488L10 32.6592V18.9364C10 17.8669 10.8665 17 11.9355 17C12.2925 17 12.6425 17.0988 12.9469 17.2854Z" fill="white" fill-opacity="0.15"/>
<path fill-rule="evenodd" clip-rule="evenodd" d="M67.0531 17.2854L40 33.8738V49.8488L70 32.6592V18.9364C70 17.8669 69.1335 17 68.0645 17C67.7075 17 67.3575 17.0988 67.0531 17.2854Z" fill="#9055FD"/>
<path fill-rule="evenodd" clip-rule="evenodd" d="M67.0531 17.2854L40 33.8738V49.8488L70 32.6592V18.9364C70 17.8669 69.1335 17 68.0645 17C67.7075 17 67.3575 17.0988 67.0531 17.2854Z" fill="white" fill-opacity="0.3"/>
</svg>
