<svg width="169" height="40" viewBox="0 0 169 40" fill="none" xmlns="http://www.w3.org/2000/svg">
<path d="M3.30256 27H0.490057L5.6108 12.4545H8.86364L13.9915 27H11.179L7.29403 15.4375H7.1804L3.30256 27ZM3.39489 21.2969H11.0653V23.4134H3.39489V21.2969ZM18.3647 12.4545V27H15.7937V12.4545H18.3647ZM23.5795 12.4545V27H21.0085V12.4545H23.5795Z" fill="#3F404D"/>
<path d="M44.9579 1.78948C46.8356 0.684956 49.1644 0.684956 51.0421 1.78948L62.0421 8.26007C63.8748 9.33809 65 11.3055 65 13.4317V26.5683C65 28.6945 63.8748 30.6619 62.0421 31.7399L51.0421 38.2105C49.1644 39.315 46.8356 39.315 44.9579 38.2105L33.9579 31.7399C32.1252 30.6619 31 28.6945 31 26.5683V13.4317C31 11.3055 32.1252 9.33809 33.9579 8.26007L44.9579 1.78948Z" fill="#30A1D3"/>
<path d="M45.4648 2.65137C47.0296 1.73093 48.9704 1.73093 50.5352 2.65137L61.5352 9.12207C63.0623 10.0204 64 11.6599 64 13.4316V26.5684C64 28.3401 63.0623 29.9796 61.5352 30.8779L50.5352 37.3486C48.9704 38.2691 47.0296 38.2691 45.4648 37.3486L34.4648 30.8779C32.9377 29.9796 32 28.3401 32 26.5684V13.4316C32 11.6599 32.9377 10.0204 34.4648 9.12207L45.4648 2.65137Z" stroke="white" stroke-opacity="0.4" stroke-width="2"/>
<path d="M43 16L39 20L43 24" stroke="white" stroke-width="2" stroke-linecap="round" stroke-linejoin="round"/>
<path d="M53 16L57 20L53 24" stroke="white" stroke-width="2" stroke-linecap="round" stroke-linejoin="round"/>
<path d="M50 12L46 28" stroke="white" stroke-width="2" stroke-linecap="round" stroke-linejoin="round"/>
<path d="M81.6037 12.4545H84.2386V21.9574C84.2386 22.9991 83.9924 23.9152 83.5 24.706C83.0123 25.4967 82.3258 26.1146 81.4403 26.5597C80.5549 27 79.5204 27.2202 78.3366 27.2202C77.1482 27.2202 76.1113 27 75.2259 26.5597C74.3404 26.1146 73.6539 25.4967 73.1662 24.706C72.6785 23.9152 72.4347 22.9991 72.4347 21.9574V12.4545H75.0696V21.7372C75.0696 22.3433 75.2022 22.883 75.4673 23.3565C75.7372 23.83 76.116 24.2017 76.6037 24.4716C77.0914 24.7367 77.669 24.8693 78.3366 24.8693C79.0043 24.8693 79.5819 24.7367 80.0696 24.4716C80.562 24.2017 80.9408 23.83 81.206 23.3565C81.4711 22.883 81.6037 22.3433 81.6037 21.7372V12.4545ZM92.4364 16.0909V18.0795H86.1651V16.0909H92.4364ZM87.7134 13.4773H90.2844V23.7188C90.2844 24.0644 90.3365 24.3295 90.4407 24.5142C90.5496 24.6941 90.6916 24.8172 90.8668 24.8835C91.042 24.9498 91.2362 24.983 91.4492 24.983C91.6102 24.983 91.757 24.9711 91.8896 24.9474C92.0269 24.9238 92.131 24.9025 92.2021 24.8835L92.6353 26.8935C92.498 26.9408 92.3015 26.9929 92.0458 27.0497C91.7949 27.1065 91.4871 27.1397 91.1225 27.1491C90.4786 27.1681 89.8986 27.071 89.3825 26.858C88.8664 26.6402 88.4568 26.304 88.1538 25.8494C87.8555 25.3949 87.7087 24.8267 87.7134 24.1449V13.4773ZM94.5866 27V16.0909H97.1577V27H94.5866ZM95.8793 14.5426C95.4721 14.5426 95.1217 14.4077 94.8281 14.1378C94.5346 13.8632 94.3878 13.5341 94.3878 13.1506C94.3878 12.7623 94.5346 12.4332 94.8281 12.1634C95.1217 11.8887 95.4721 11.7514 95.8793 11.7514C96.2912 11.7514 96.6416 11.8887 96.9304 12.1634C97.224 12.4332 97.3707 12.7623 97.3707 13.1506C97.3707 13.5341 97.224 13.8632 96.9304 14.1378C96.6416 14.4077 96.2912 14.5426 95.8793 14.5426ZM102.373 12.4545V27H99.8015V12.4545H102.373ZM105.016 27V16.0909H107.587V27H105.016ZM106.309 14.5426C105.902 14.5426 105.551 14.4077 105.258 14.1378C104.964 13.8632 104.817 13.5341 104.817 13.1506C104.817 12.7623 104.964 12.4332 105.258 12.1634C105.551 11.8887 105.902 11.7514 106.309 11.7514C106.721 11.7514 107.071 11.8887 107.36 12.1634C107.654 12.4332 107.8 12.7623 107.8 13.1506C107.8 13.5341 107.654 13.8632 107.36 14.1378C107.071 14.4077 106.721 14.5426 106.309 14.5426ZM115.679 16.0909V18.0795H109.407V16.0909H115.679ZM110.956 13.4773H113.527V23.7188C113.527 24.0644 113.579 24.3295 113.683 24.5142C113.792 24.6941 113.934 24.8172 114.109 24.8835C114.284 24.9498 114.478 24.983 114.691 24.983C114.852 24.983 114.999 24.9711 115.132 24.9474C115.269 24.9238 115.373 24.9025 115.444 24.8835L115.877 26.8935C115.74 26.9408 115.544 26.9929 115.288 27.0497C115.037 27.1065 114.729 27.1397 114.365 27.1491C113.721 27.1681 113.141 27.071 112.625 26.858C112.109 26.6402 111.699 26.304 111.396 25.8494C111.098 25.3949 110.951 24.8267 110.956 24.1449V13.4773ZM119.427 31.0909C119.076 31.0909 118.752 31.0625 118.454 31.0057C118.16 30.9536 117.926 30.892 117.751 30.821L118.347 28.8182C118.721 28.9271 119.055 28.9792 119.349 28.9744C119.642 28.9697 119.9 28.8774 120.123 28.6974C120.35 28.5223 120.542 28.2287 120.698 27.8168L120.918 27.2273L116.962 16.0909H119.69L122.204 24.3295H122.317L124.839 16.0909H127.573L123.205 28.321C123.002 28.8987 122.732 29.3935 122.396 29.8054C122.059 30.2221 121.647 30.5393 121.16 30.7571C120.677 30.9796 120.099 31.0909 119.427 31.0909ZM141.916 17.3622H139.26C139.184 16.9266 139.045 16.5407 138.841 16.2045C138.637 15.8636 138.384 15.5748 138.081 15.3381C137.778 15.1013 137.432 14.9238 137.044 14.8054C136.661 14.6823 136.246 14.6207 135.801 14.6207C135.01 14.6207 134.31 14.8196 133.699 15.2173C133.088 15.6103 132.61 16.188 132.264 16.9503C131.919 17.7079 131.746 18.6335 131.746 19.7273C131.746 20.84 131.919 21.7775 132.264 22.5398C132.615 23.2973 133.093 23.8703 133.699 24.2585C134.31 24.642 135.008 24.8338 135.794 24.8338C136.23 24.8338 136.637 24.777 137.016 24.6634C137.399 24.545 137.742 24.3722 138.045 24.1449C138.353 23.9176 138.611 23.6383 138.82 23.3068C139.033 22.9754 139.179 22.5966 139.26 22.1705L141.916 22.1847C141.817 22.8759 141.601 23.5246 141.27 24.1307C140.943 24.7367 140.515 25.2718 139.984 25.7358C139.454 26.1951 138.834 26.5549 138.124 26.8153C137.413 27.071 136.625 27.1989 135.759 27.1989C134.48 27.1989 133.339 26.9029 132.335 26.3111C131.331 25.7192 130.541 24.8646 129.963 23.7472C129.385 22.6297 129.097 21.2898 129.097 19.7273C129.097 18.16 129.388 16.8201 129.97 15.7074C130.553 14.59 131.346 13.7353 132.349 13.1435C133.353 12.5516 134.49 12.2557 135.759 12.2557C136.568 12.2557 137.321 12.3693 138.017 12.5966C138.713 12.8239 139.333 13.1577 139.878 13.598C140.422 14.0336 140.87 14.5687 141.22 15.2031C141.575 15.8329 141.807 16.5526 141.916 17.3622ZM152.234 16.4531C152.168 15.8329 151.888 15.3499 151.396 15.0043C150.908 14.6586 150.274 14.4858 149.493 14.4858C148.943 14.4858 148.472 14.5687 148.079 14.7344C147.686 14.9001 147.386 15.125 147.177 15.4091C146.969 15.6932 146.862 16.0175 146.858 16.3821C146.858 16.6851 146.926 16.9479 147.064 17.1705C147.206 17.393 147.397 17.5824 147.639 17.7386C147.88 17.8902 148.148 18.018 148.441 18.1222C148.735 18.2263 149.031 18.3139 149.329 18.3849L150.693 18.7259C151.242 18.8537 151.77 19.0265 152.277 19.2443C152.788 19.4621 153.245 19.7367 153.647 20.0682C154.055 20.3996 154.377 20.7997 154.613 21.2685C154.85 21.7372 154.968 22.2865 154.968 22.9162C154.968 23.7685 154.751 24.5189 154.315 25.1676C153.879 25.8116 153.25 26.3158 152.426 26.6804C151.607 27.0402 150.615 27.2202 149.45 27.2202C148.318 27.2202 147.336 27.045 146.502 26.6946C145.674 26.3442 145.025 25.8329 144.556 25.1605C144.092 24.4882 143.842 23.669 143.804 22.7031H146.396C146.434 23.2098 146.59 23.6312 146.865 23.9673C147.139 24.3035 147.497 24.5545 147.937 24.7202C148.382 24.8859 148.879 24.9688 149.429 24.9688C150.002 24.9688 150.503 24.8835 150.934 24.7131C151.37 24.5379 151.711 24.2964 151.957 23.9886C152.203 23.6761 152.329 23.3116 152.333 22.8949C152.329 22.5161 152.217 22.2036 152 21.9574C151.782 21.7064 151.476 21.4981 151.083 21.3324C150.695 21.1619 150.241 21.0104 149.72 20.8778L148.065 20.4517C146.867 20.1439 145.92 19.6776 145.224 19.0526C144.533 18.4228 144.187 17.5871 144.187 16.5455C144.187 15.6884 144.419 14.938 144.883 14.294C145.352 13.6501 145.989 13.1506 146.794 12.7955C147.599 12.4356 148.51 12.2557 149.528 12.2557C150.56 12.2557 151.465 12.4356 152.241 12.7955C153.022 13.1506 153.636 13.6454 154.081 14.2798C154.526 14.9096 154.755 15.634 154.77 16.4531H152.234ZM165.222 16.4531C165.156 15.8329 164.877 15.3499 164.384 15.0043C163.897 14.6586 163.262 14.4858 162.481 14.4858C161.932 14.4858 161.46 14.5687 161.067 14.7344C160.674 14.9001 160.374 15.125 160.165 15.4091C159.957 15.6932 159.851 16.0175 159.846 16.3821C159.846 16.6851 159.915 16.9479 160.052 17.1705C160.194 17.393 160.386 17.5824 160.627 17.7386C160.869 17.8902 161.136 18.018 161.43 18.1222C161.723 18.2263 162.019 18.3139 162.317 18.3849L163.681 18.7259C164.23 18.8537 164.758 19.0265 165.265 19.2443C165.776 19.4621 166.233 19.7367 166.636 20.0682C167.043 20.3996 167.365 20.7997 167.602 21.2685C167.838 21.7372 167.957 22.2865 167.957 22.9162C167.957 23.7685 167.739 24.5189 167.303 25.1676C166.868 25.8116 166.238 26.3158 165.414 26.6804C164.595 27.0402 163.603 27.2202 162.438 27.2202C161.307 27.2202 160.324 27.045 159.491 26.6946C158.662 26.3442 158.013 25.8329 157.545 25.1605C157.081 24.4882 156.83 23.669 156.792 22.7031H159.384C159.422 23.2098 159.578 23.6312 159.853 23.9673C160.128 24.3035 160.485 24.5545 160.925 24.7202C161.371 24.8859 161.868 24.9688 162.417 24.9688C162.99 24.9688 163.492 24.8835 163.923 24.7131C164.358 24.5379 164.699 24.2964 164.945 23.9886C165.192 23.6761 165.317 23.3116 165.322 22.8949C165.317 22.5161 165.206 22.2036 164.988 21.9574C164.77 21.7064 164.465 21.4981 164.072 21.3324C163.683 21.1619 163.229 21.0104 162.708 20.8778L161.053 20.4517C159.855 20.1439 158.908 19.6776 158.212 19.0526C157.521 18.4228 157.175 17.5871 157.175 16.5455C157.175 15.6884 157.407 14.938 157.871 14.294C158.34 13.6501 158.977 13.1506 159.782 12.7955C160.587 12.4356 161.498 12.2557 162.516 12.2557C163.549 12.2557 164.453 12.4356 165.229 12.7955C166.011 13.1506 166.624 13.6454 167.069 14.2798C167.514 14.9096 167.744 15.634 167.758 16.4531H165.222Z" fill="#30A1D3"/>
</svg>
