<svg width="80" height="80" viewBox="0 0 80 80" fill="none" xmlns="http://www.w3.org/2000/svg">
<g clip-path="url(#clip0_4107_3999)">
<mask id="mask0_4107_3999" style="mask-type:alpha" maskUnits="userSpaceOnUse" x="22" y="17" width="28" height="51">
<path d="M42.6304 17.7744L26.8447 28.5762C22.5451 32.0109 21.1074 36.2575 22.5315 41.3161C22.7321 41.9786 23.3482 44.3525 26.4281 46.5516C27.4776 47.3011 29.7695 48.3116 33.3036 49.5832L33.2231 49.6369L25.6856 54.6644C22.3607 57.3344 21.8186 60.7017 24.0592 64.7664C25.9939 67.2722 29.5945 67.9538 32.4548 66.8485C34.3616 66.1115 39.0827 62.9781 46.6181 57.448C49.0728 54.5888 50.0805 51.4698 49.641 48.0911C48.9663 43.9674 46.2537 40.9866 41.5031 39.1486L38.268 37.7714L49.9618 29.4034L42.6304 17.7744Z" fill="white"/>
</mask>
<g mask="url(#mask0_4107_3999)">
<path d="M42.6304 17.7744L26.8447 28.5762C22.5451 32.0109 21.1074 36.2575 22.5315 41.3161C22.7321 41.9786 23.3482 44.3525 26.4281 46.5516C27.4776 47.3011 29.7695 48.3116 33.3036 49.5832L33.2231 49.6369L25.6856 54.6644C22.3607 57.3344 21.8186 60.7017 24.0592 64.7664C25.9939 67.2722 29.5945 67.9538 32.4548 66.8485C34.3616 66.1115 39.0827 62.9781 46.6181 57.448C49.0728 54.5888 50.0805 51.4698 49.641 48.0911C48.9663 43.9674 46.2537 40.9866 41.5031 39.1486L38.268 37.7714L49.9618 29.4034L42.6304 17.7744Z" fill="#696CFF"/>
<path d="M29.9965 26.3845C27.84 29.7571 28.311 32.5876 31.4096 34.8761C34.7684 36.399 37.0233 37.3833 38.1742 37.8291L45.238 39.2375L49.9618 29.4034C45.2799 21.9786 42.8361 18.1023 42.6304 17.7744C42.3072 18.0079 38.0959 20.8779 29.9965 26.3845Z" fill="#696CFF"/>
<path d="M29.9965 26.3845C27.84 29.7571 28.311 32.5876 31.4096 34.8761C34.7684 36.399 37.0233 37.3833 38.1742 37.8291L45.238 39.2375L49.9618 29.4034C45.2799 21.9786 42.8361 18.1023 42.6304 17.7744C42.3072 18.0079 38.0959 20.8779 29.9965 26.3845Z" fill="white" fill-opacity="0.2"/>
<path d="M33.0757 49.6016L40.4002 52.7834C43.2028 54.9825 43.5495 57.6208 41.4404 60.6983C39.3312 63.7758 37.3423 65.7063 35.4737 66.4899C30.4646 68.2141 27.9601 69.0761 27.9601 69.0761C27.9601 69.0761 25.8682 67.6332 21.6842 64.7475C20.8364 59.6498 20.8364 56.9638 21.6842 56.6895C22.9559 56.278 25.9061 52.0346 26.7035 51.5848C27.2351 51.2849 29.3592 50.6238 33.0757 49.6016Z" fill="#696CFF"/>
<path d="M33.0757 49.6016L40.4002 52.7834C43.2028 54.9825 43.5495 57.6208 41.4404 60.6983C39.3312 63.7758 37.3423 65.7063 35.4737 66.4899C30.4646 68.2141 27.9601 69.0761 27.9601 69.0761C27.9601 69.0761 25.8682 67.6332 21.6842 64.7475C20.8364 59.6498 20.8364 56.9638 21.6842 56.6895C22.9559 56.278 25.9061 52.0346 26.7035 51.5848C27.2351 51.2849 29.3592 50.6238 33.0757 49.6016Z" fill="white" fill-opacity="0.2"/>
</g>
<path d="M56.8446 20.9613L51.8609 32.6507C51.2003 34.2002 49.4142 34.921 47.8716 34.2608C47.2672 34.0021 46.763 33.5535 46.4348 32.9824L38.85 19.7842C38.0122 18.3264 38.5118 16.4608 39.9658 15.6174C40.5355 15.287 41.1963 15.1508 41.8489 15.2291L54.4175 16.7378C56.0834 16.9378 57.27 18.4556 57.0678 20.1279C57.0331 20.4148 56.958 20.6954 56.8446 20.9613Z" fill="#696CFF"/>
<path d="M56.8446 20.9613L51.8609 32.6507C51.2003 34.2002 49.4142 34.921 47.8716 34.2608C47.2672 34.0021 46.763 33.5535 46.4348 32.9824L38.85 19.7842C38.0122 18.3264 38.5118 16.4608 39.9658 15.6174C40.5355 15.287 41.1963 15.1508 41.8489 15.2291L54.4175 16.7378C56.0834 16.9378 57.27 18.4556 57.0678 20.1279C57.0331 20.4148 56.958 20.6954 56.8446 20.9613Z" fill="white" fill-opacity="0.2"/>
</g>
<defs>
<clipPath id="clip0_4107_3999">
<rect width="80" height="80" fill="white"/>
</clipPath>
</defs>
</svg>
