<svg width="80" height="80" viewBox="0 0 80 80" fill="none" xmlns="http://www.w3.org/2000/svg">
<rect width="80" height="80" fill="white"/>
<mask id="mask0_1_15" style="mask-type:alpha" maskUnits="userSpaceOnUse" x="22" y="17" width="28" height="51">
<path d="M42.6304 17.7744L26.8447 28.5762C22.5451 32.0109 21.1074 36.2575 22.5315 41.3161C22.7321 41.9786 23.3482 44.3525 26.4281 46.5516C27.4776 47.3011 29.7695 48.3116 33.3036 49.5832L33.2231 49.6369L25.6856 54.6644C22.3607 57.3344 21.8186 60.7017 24.0592 64.7664C25.9939 67.2722 29.5945 67.9538 32.4548 66.8485C34.3616 66.1115 39.0827 62.9781 46.6181 57.448C49.0728 54.5888 50.0805 51.4698 49.641 48.0911C48.9663 43.9674 46.2537 40.9866 41.5031 39.1486L38.268 37.7714L49.9618 29.4034L42.6304 17.7744Z" fill="white"/>
</mask>
<g mask="url(#mask0_1_15)">
<path d="M42.6304 17.7744L26.8447 28.5762C22.5451 32.0109 21.1074 36.2575 22.5315 41.3161C22.7321 41.9786 23.3482 44.3525 26.4281 46.5516C27.4776 47.3011 29.7695 48.3116 33.3036 49.5832L33.2231 49.6369L25.6856 54.6644C22.3607 57.3344 21.8186 60.7017 24.0592 64.7664C25.9939 67.2722 29.5945 67.9538 32.4548 66.8485C34.3616 66.1115 39.0827 62.9781 46.6181 57.448C49.0728 54.5888 50.0805 51.4698 49.641 48.0911C48.9663 43.9674 46.2537 40.9866 41.5031 39.1486L38.268 37.7714L49.9618 29.4034L42.6304 17.7744Z" fill="#696CFF"/>
<path d="M29.9965 26.3845C27.84 29.7571 28.311 32.5876 31.4096 34.8761C34.7684 36.399 37.0233 37.3833 38.1742 37.8291L45.238 39.2375L49.9618 29.4034C45.2799 21.9786 42.8361 18.1023 42.6304 17.7744C42.3072 18.0079 38.0959 20.8779 29.9965 26.3845Z" fill="#696CFF"/>
<path d="M29.9965 26.3845C27.84 29.7571 28.311 32.5876 31.4096 34.8761C34.7684 36.399 37.0233 37.3833 38.1742 37.8291L45.238 39.2375L49.9618 29.4034C45.2799 21.9786 42.8361 18.1023 42.6304 17.7744C42.3072 18.0079 38.0959 20.8779 29.9965 26.3845Z" fill="white" fill-opacity="0.2"/>
<path d="M33.0757 49.6017L40.4002 52.7835C43.2028 54.9826 43.5495 57.6209 41.4404 60.6984C39.3312 63.7759 37.3423 65.7064 35.4737 66.49C30.4646 68.2142 27.9601 69.0762 27.9601 69.0762C27.9601 69.0762 25.8682 67.6333 21.6842 64.7476C20.8364 59.6499 20.8364 56.9639 21.6842 56.6896C22.9559 56.2781 25.9061 52.0347 26.7035 51.5849C27.2351 51.285 29.3592 50.6239 33.0757 49.6017Z" fill="#696CFF"/>
<path d="M33.0757 49.6017L40.4002 52.7835C43.2028 54.9826 43.5495 57.6209 41.4404 60.6984C39.3312 63.7759 37.3423 65.7064 35.4737 66.49C30.4646 68.2142 27.9601 69.0762 27.9601 69.0762C27.9601 69.0762 25.8682 67.6333 21.6842 64.7476C20.8364 59.6499 20.8364 56.9639 21.6842 56.6896C22.9559 56.2781 25.9061 52.0347 26.7035 51.5849C27.2351 51.285 29.3592 50.6239 33.0757 49.6017Z" fill="white" fill-opacity="0.2"/>
</g>
<path d="M56.8446 20.9614L51.8609 32.6508C51.2003 34.2003 49.4142 34.9211 47.8716 34.2609C47.2672 34.0022 46.763 33.5536 46.4348 32.9825L38.85 19.7843C38.0122 18.3265 38.5118 16.4609 39.9658 15.6175C40.5355 15.2871 41.1963 15.1509 41.8489 15.2292L54.4175 16.7379C56.0834 16.9379 57.27 18.4557 57.0678 20.128C57.0331 20.4149 56.958 20.6955 56.8446 20.9614Z" fill="#696CFF"/>
<path d="M56.8446 20.9614L51.8609 32.6508C51.2003 34.2003 49.4142 34.9211 47.8716 34.2609C47.2672 34.0022 46.763 33.5536 46.4348 32.9825L38.85 19.7843C38.0122 18.3265 38.5118 16.4609 39.9658 15.6175C40.5355 15.2871 41.1963 15.1509 41.8489 15.2292L54.4175 16.7379C56.0834 16.9379 57.27 18.4557 57.0678 20.128C57.0331 20.4149 56.958 20.6955 56.8446 20.9614Z" fill="white" fill-opacity="0.2"/>
</svg>
