<svg width="662" height="117" viewBox="0 0 662 117" fill="none" xmlns="http://www.w3.org/2000/svg">
<path fill-rule="evenodd" clip-rule="evenodd" d="M262.11 65.1431L269.024 75.6263H244.359V88.3501H272.367V99.2334H244.359H241.398H231.795V42.7363H241.398H244.359H247.332L254.457 53.5396H244.359V65.1431H262.11ZM18.1482 53.6996V99.2334H30.712V53.6996H48.3974V42.7363H0.462891V53.6996H18.1482ZM55.4133 42.7363V99.2334H67.9771V75.6263H90.3838V99.2334H103.028V42.7363H90.3838V64.743H67.9771V42.7363H55.4133ZM113.868 42.7363V99.2334H123.471H126.432H154.441V88.3501H126.432V75.6263H151.64V65.1431H126.432V53.5396H154.041V42.7363H126.432H123.471H113.868ZM163.102 42.7363V99.2334H175.586V67.8879L187.83 87.0697H196.152L208.396 67.9939V99.2334H220.96V42.7363H211.917L192.027 73.8281L172.065 42.7363H163.102Z" fill="url(#paint0_linear_15002_66100)"/>
<path d="M356.933 100.834C353.644 100.834 350.836 100.232 348.51 99.0286C346.184 97.8253 344.118 96.0805 342.313 93.7943L346.164 89.9437C347.487 91.7888 349.011 93.1926 350.736 94.1553C352.461 95.0778 354.587 95.5391 357.114 95.5391C359.6 95.5391 361.586 94.9976 363.07 93.9146C364.594 92.8316 365.356 91.3475 365.356 89.4624C365.356 87.8981 364.995 86.6346 364.273 85.672C363.551 84.7093 362.569 83.9272 361.325 83.3255C360.122 82.6838 358.798 82.1222 357.354 81.6409C355.91 81.1195 354.466 80.578 353.022 80.0164C351.578 79.4148 350.255 78.6928 349.051 77.8505C347.848 76.9681 346.865 75.8249 346.103 74.4211C345.381 73.0172 345.02 71.2524 345.02 69.1266C345.02 66.7601 345.582 64.7546 346.705 63.11C347.868 61.4254 349.433 60.1419 351.398 59.2595C353.403 58.3369 355.65 57.8757 358.136 57.8757C360.864 57.8757 363.311 58.4172 365.477 59.5001C367.643 60.543 369.407 61.9268 370.771 63.6515L366.921 67.5021C365.677 66.0581 364.333 64.9752 362.889 64.2532C361.486 63.5312 359.861 63.1702 358.016 63.1702C355.77 63.1702 353.985 63.6716 352.661 64.6743C351.338 65.637 350.676 67.0007 350.676 68.7656C350.676 70.1694 351.037 71.3126 351.759 72.195C352.521 73.0373 353.504 73.7593 354.707 74.3609C355.91 74.9626 357.234 75.5241 358.678 76.0455C360.162 76.5269 361.626 77.0684 363.07 77.67C364.514 78.2717 365.838 79.0337 367.041 79.9563C368.244 80.8788 369.207 82.0821 369.929 83.5662C370.691 85.0102 371.072 86.8352 371.072 89.0412C371.072 92.7313 369.788 95.6193 367.221 97.705C364.694 99.7907 361.265 100.834 356.933 100.834ZM378.694 100.232V58.4773H384.35V100.232H378.694ZM382.545 100.232V95.0577H406.49V100.232H382.545ZM382.545 81.3401V76.4065H404.505V81.3401H382.545ZM382.545 63.6515V58.4773H406.19V63.6515H382.545ZM414.182 100.232V58.4773H419.838V100.232H414.182ZM418.033 100.232V95.0577H440.414V100.232H418.033ZM447.379 100.232V58.4773H453.034V100.232H447.379ZM451.229 100.232V95.0577H475.175V100.232H451.229ZM451.229 81.3401V76.4065H473.19V81.3401H451.229ZM451.229 63.6515V58.4773H474.874V63.6515H451.229ZM500.937 100.834C497.929 100.834 495.142 100.292 492.574 99.2091C490.007 98.086 487.761 96.5418 485.836 94.5764C483.951 92.611 482.487 90.3247 481.444 87.7176C480.401 85.1104 479.88 82.3228 479.88 79.3546C479.88 76.3464 480.401 73.5387 481.444 70.9315C482.487 68.3244 483.951 66.0581 485.836 64.1328C487.761 62.1675 489.987 60.6433 492.514 59.5603C495.081 58.4372 497.869 57.8757 500.877 57.8757C504.166 57.8757 507.054 58.4372 509.541 59.5603C512.028 60.6834 514.234 62.2076 516.159 64.1328L512.248 68.0436C510.925 66.5595 509.3 65.3963 507.375 64.554C505.49 63.7117 503.324 63.2905 500.877 63.2905C498.671 63.2905 496.646 63.6916 494.801 64.4938C492.956 65.2559 491.351 66.359 489.987 67.8029C488.624 69.2469 487.561 70.9516 486.799 72.917C486.077 74.8824 485.716 77.0282 485.716 79.3546C485.716 81.681 486.077 83.8269 486.799 85.7923C487.561 87.7577 488.624 89.4624 489.987 90.9063C491.351 92.3503 492.956 93.4734 494.801 94.2756C496.646 95.0377 498.671 95.4187 500.877 95.4187C503.484 95.4187 505.751 94.9976 507.676 94.1553C509.601 93.2728 511.226 92.0896 512.549 90.6055L516.46 94.4561C514.535 96.4616 512.269 98.0259 509.661 99.149C507.094 100.272 504.186 100.834 500.937 100.834ZM533.538 100.232V59.6806H539.194V100.232H533.538ZM519.339 63.6515V58.4773H553.332V63.6515H519.339ZM560.071 100.232V58.4773H565.726V100.232H560.071ZM594.594 100.834C591.626 100.834 588.859 100.292 586.292 99.2091C583.724 98.086 581.478 96.5418 579.553 94.5764C577.628 92.5709 576.124 90.2646 575.041 87.6574C573.998 85.0503 573.476 82.2626 573.476 79.2945C573.476 76.2862 573.998 73.4986 575.041 70.9315C576.124 68.3244 577.608 66.0381 579.493 64.0727C581.418 62.1073 583.644 60.5831 586.171 59.5001C588.738 58.4172 591.506 57.8757 594.474 57.8757C597.442 57.8757 600.19 58.4172 602.717 59.5001C605.284 60.5831 607.53 62.1073 609.455 64.0727C611.38 66.0381 612.885 68.3244 613.968 70.9315C615.05 73.5387 615.592 76.3464 615.592 79.3546C615.592 82.3228 615.05 85.1104 613.968 87.7176C612.885 90.3247 611.38 92.611 609.455 94.5764C607.57 96.5418 605.344 98.086 602.777 99.2091C600.25 100.292 597.522 100.834 594.594 100.834ZM594.474 95.4187C597.482 95.4187 600.109 94.7369 602.356 93.3731C604.642 91.9693 606.447 90.064 607.77 87.6574C609.094 85.2107 609.756 82.4231 609.756 79.2945C609.756 76.9681 609.375 74.8422 608.613 72.917C607.851 70.9516 606.788 69.2469 605.424 67.8029C604.06 66.359 602.456 65.2559 600.611 64.4938C598.766 63.6916 596.72 63.2905 594.474 63.2905C591.506 63.2905 588.879 63.9724 586.592 65.3362C584.346 66.6999 582.561 68.5851 581.238 70.9917C579.954 73.3983 579.312 76.1659 579.312 79.2945C579.312 81.6208 579.673 83.7868 580.395 85.7923C581.157 87.7577 582.2 89.4624 583.524 90.9063C584.888 92.3102 586.492 93.4132 588.337 94.2154C590.222 95.0176 592.268 95.4187 594.474 95.4187ZM623.35 100.232V58.4773H627.321L629.006 65.0353V100.232H623.35ZM652.229 100.232L626.599 65.998L627.321 58.4773L653.011 92.6511L652.229 100.232ZM652.229 100.232L650.545 94.0349V58.4773H656.2V100.232H652.229Z" fill="#5C2EA1"/>
<path fill-rule="evenodd" clip-rule="evenodd" d="M373.388 42.0385H654.879V40.0278H373.388V42.0385Z" fill="#5C2EA1"/>
<path fill-rule="evenodd" clip-rule="evenodd" d="M290.447 45.2284L385.936 0.179437C385.936 0.179437 392.378 -1.33455 391.236 5.47945L330.229 66.4275L290.447 45.2284Z" fill="#4A9AE8"/>
<g filter="url(#filter0_d_15002_66100)">
<path fill-rule="evenodd" clip-rule="evenodd" d="M261.374 35.6345C261.374 35.6345 261.721 29.1125 268.089 31.6345L331.3 65.5415L306.139 90.3595C306.139 90.3595 301.585 94.4765 297.495 89.8975L261.374 35.6345Z" fill="url(#paint1_linear_15002_66100)"/>
</g>
<defs>
<filter id="filter0_d_15002_66100" x="259.074" y="24.6567" width="79.7218" height="70.8009" filterUnits="userSpaceOnUse" color-interpolation-filters="sRGB">
<feFlood flood-opacity="0" result="BackgroundImageFix"/>
<feColorMatrix in="SourceAlpha" type="matrix" values="0 0 0 0 0 0 0 0 0 0 0 0 0 0 0 0 0 0 127 0" result="hardAlpha"/>
<feOffset dx="2.598" dy="-1.5"/>
<feGaussianBlur stdDeviation="2.449"/>
<feColorMatrix type="matrix" values="0 0 0 0 0 0 0 0 0 0 0 0 0 0 0 0 0 0 0.2 0"/>
<feBlend mode="normal" in2="BackgroundImageFix" result="effect1_dropShadow_15002_66100"/>
<feBlend mode="normal" in="SourceGraphic" in2="effect1_dropShadow_15002_66100" result="shape"/>
</filter>
<linearGradient id="paint0_linear_15002_66100" x1="0.462891" y1="70.9849" x2="272.367" y2="70.9849" gradientUnits="userSpaceOnUse">
<stop stop-color="#4A9AE8"/>
<stop offset="1" stop-color="#5C2EA1"/>
</linearGradient>
<linearGradient id="paint1_linear_15002_66100" x1="261.374" y1="31.0547" x2="317.393" y2="80.8838" gradientUnits="userSpaceOnUse">
<stop stop-color="#5C2EA1"/>
<stop offset="1" stop-color="#4A9AE8"/>
</linearGradient>
</defs>
</svg>
