<svg width="363" height="363" viewBox="0 0 363 363" fill="none" xmlns="http://www.w3.org/2000/svg">
<rect x="1" y="1" width="361" height="361" rx="19" stroke="#794DFF" stroke-width="2"/>
<path fill-rule="evenodd" clip-rule="evenodd" d="M263.287 160.612C266.965 170.6 268.973 181.395 268.973 192.659C268.973 243.873 227.456 285.39 176.242 285.39C125.028 285.39 83.5104 243.873 83.5104 192.659C83.5104 145.953 118.04 107.311 162.964 100.87C163.542 100.126 164.145 99.3721 164.767 98.615C117.86 104.279 81.5104 144.224 81.5104 192.659C81.5104 244.977 123.923 287.39 176.242 287.39C228.561 287.39 270.973 244.977 270.973 192.659C270.973 180.496 268.681 168.87 264.506 158.186C264.093 159.019 263.685 159.83 263.287 160.612Z" fill="url(#paint0_linear_9965_202841)"/>
<mask id="mask0_9965_202841" style="mask-type:alpha" maskUnits="userSpaceOnUse" x="83" y="99" width="186" height="187">
<ellipse cx="92.7314" cy="92.7315" rx="92.7314" ry="92.7315" transform="matrix(-1 0 0 1 268.973 99.927)" fill="#3F404D"/>
</mask>
<g mask="url(#mask0_9965_202841)">
<path d="M87.5672 235.859C102.13 244.816 126.868 244.867 142.316 217.359C142.456 217.109 142.78 217.018 143.023 217.17C147.989 220.277 159.482 227.586 169.565 234.366C169.756 234.495 169.833 234.74 169.752 234.957C161.335 257.505 152.215 273.022 176.125 291.623C143.604 287.403 110.858 266.439 87.5672 235.859Z" fill="#794DFF"/>
</g>
<path d="M244.093 76.3618C245.728 76.3219 247.617 77.4821 248.335 78.952C252.377 87.4249 254.067 94.3794 255.735 101.339C262.591 129.956 251.411 150.784 234.351 168.446L241.27 197.323C242.357 201.863 240.343 207.99 236.783 210.968L212.754 231.238C211.912 231.879 210.974 232.361 209.93 232.647C206.263 233.526 202.574 231.258 201.753 227.834L194.851 199.023L190.058 206.503C184.716 215.229 184.419 213.736 177.533 209.503C177.533 209.503 168.677 204.059 160.074 198.771C151.471 193.482 152.823 193.158 155.584 188.647L161.801 178.492L133.11 185.636C129.443 186.515 125.753 184.247 124.933 180.822C124.718 179.774 124.724 178.728 124.915 177.692L132.024 147.046C133.094 142.503 137.596 137.932 142.13 136.846L171.049 129.899C179.033 106.728 192.608 87.4671 221.005 80.6635C227.805 78.2118 234.735 76.5513 244.093 76.3618Z" fill="#794DFF"/>
<circle cx="223.776" cy="116.442" r="12.4681" fill="white"/>
<defs>
<linearGradient id="paint0_linear_9965_202841" x1="205.012" y1="144.753" x2="132.427" y2="270.834" gradientUnits="userSpaceOnUse">
<stop stop-color="white" stop-opacity="0"/>
<stop offset="0.563954" stop-color="#794DFF" stop-opacity="0.3"/>
<stop offset="0.879734" stop-color="#794DFF"/>
</linearGradient>
</defs>
</svg>
