<svg width="67" height="66" viewBox="0 0 67 66" fill="none" xmlns="http://www.w3.org/2000/svg">
<rect width="66" height="66" rx="33" transform="matrix(1 0 0 -1 0.205872 66)" fill="#171717"/>
<path d="M33.4134 51.5525V39.3847C33.4134 35.384 30.1702 32.1408 26.1695 32.1408H14.34" stroke="#FAFAFA" stroke-width="4.02439"/>
<path d="M33.7337 12.729L33.7337 24.8968C33.7337 28.8975 36.9769 32.1407 40.9776 32.1407L52.8072 32.1407" stroke="#FAFAFA" stroke-width="4.02439"/>
<line y1="-2.0122" x2="11.7051" y2="-2.0122" transform="matrix(-0.711279 -0.70291 -0.70291 0.711279 46.7106 47.6479)" stroke="#FAFAFA" stroke-width="4.02439"/>
<line y1="-2.0122" x2="11.7051" y2="-2.0122" transform="matrix(-0.711279 -0.70291 -0.70291 0.711279 26.0933 27.0955)" stroke="#FAFAFA" stroke-width="4.02439"/>
<line y1="-2.0122" x2="11.7051" y2="-2.0122" transform="matrix(-0.707107 0.707107 0.707107 0.707107 28.5272 39.8511)" stroke="#FAFAFA" stroke-width="4.02439"/>
<line y1="-2.0122" x2="11.7051" y2="-2.0122" transform="matrix(-0.707107 0.707107 0.707107 0.707107 49.4556 18.8677)" stroke="#FAFAFA" stroke-width="4.02439"/>
</svg>
