<svg width="202" height="215" viewBox="0 0 202 215" fill="none" xmlns="http://www.w3.org/2000/svg">
<path fill-rule="evenodd" clip-rule="evenodd" d="M181.776 87.6122C185.455 97.5996 187.463 108.395 187.463 119.659C187.463 170.873 145.946 212.39 94.7314 212.39C43.5173 212.39 2 170.873 2 119.659C2 72.9526 36.5297 34.3115 81.4539 27.8705C82.0314 27.1259 82.6343 26.3721 83.2565 25.615C36.3493 31.2788 0 71.2238 0 119.659C0 171.977 42.4127 214.39 94.7314 214.39C147.05 214.39 189.463 171.977 189.463 119.659C189.463 107.496 187.171 95.8696 182.995 85.1865C182.583 86.0188 182.175 86.8298 181.776 87.6122Z" fill="url(#paint0_linear_9965_202842)"/>
<mask id="mask0_9965_202842" style="mask-type:alpha" maskUnits="userSpaceOnUse" x="2" y="26" width="186" height="187">
<ellipse cx="92.7314" cy="92.7315" rx="92.7314" ry="92.7315" transform="matrix(-1 0 0 1 187.463 26.927)" fill="#3F404D"/>
</mask>
<g mask="url(#mask0_9965_202842)">
<path d="M6.05687 162.859C20.6193 171.816 45.358 171.867 60.8054 144.359C60.9459 144.109 61.2699 144.018 61.513 144.17C66.4783 147.277 77.9717 154.586 88.0542 161.366C88.2458 161.495 88.3224 161.74 88.2416 161.957C79.825 184.505 70.705 200.022 94.615 218.623C62.0933 214.403 29.348 193.439 6.05687 162.859Z" fill="#794DFF"/>
</g>
<path d="M162.583 3.36177C164.218 3.32185 166.106 4.4821 166.824 5.95204C170.866 14.4249 172.557 21.3794 174.224 28.3393C181.08 56.9557 169.901 77.7837 152.841 95.4464L159.759 124.323C160.847 128.863 158.832 134.99 155.273 137.968L131.243 158.238C130.402 158.879 129.464 159.361 128.42 159.647C124.753 160.526 121.063 158.258 120.243 154.834L113.34 126.023L108.547 133.503C103.205 142.229 102.909 140.736 96.023 136.503C96.023 136.503 87.167 131.059 78.5638 125.771C69.9605 120.482 71.3122 120.158 74.074 115.647L80.2904 105.492L51.5998 112.636C47.9324 113.515 44.2429 111.247 43.4224 107.822C43.2079 106.774 43.2134 105.728 43.4042 104.692L50.5138 74.0463C51.5837 69.5032 56.0859 64.9325 60.6195 63.8463L89.5386 56.8989C97.5231 33.7284 111.097 14.4671 139.495 7.66353C146.294 5.2118 153.225 3.55134 162.583 3.36177Z" fill="#794DFF"/>
<circle cx="142.266" cy="43.442" r="12.4681" fill="white"/>
<defs>
<linearGradient id="paint0_linear_9965_202842" x1="123.502" y1="71.7534" x2="50.917" y2="197.834" gradientUnits="userSpaceOnUse">
<stop stop-color="white" stop-opacity="0"/>
<stop offset="0.563954" stop-color="#794DFF" stop-opacity="0.3"/>
<stop offset="0.879734" stop-color="#794DFF"/>
</linearGradient>
</defs>
</svg>
