<svg width="151" height="40" viewBox="0 0 151 40" fill="none" xmlns="http://www.w3.org/2000/svg">
<path d="M3.30256 27H0.490057L5.6108 12.4545H8.86364L13.9915 27H11.179L7.29403 15.4375H7.1804L3.30256 27ZM3.39489 21.2969H11.0653V23.4134H3.39489V21.2969ZM18.3647 12.4545V27H15.7937V12.4545H18.3647ZM23.5795 12.4545V27H21.0085V12.4545H23.5795Z" fill="#3F404D"/>
<path d="M44.9579 1.78948C46.8356 0.684956 49.1644 0.684956 51.0421 1.78948L62.0421 8.26007C63.8748 9.33809 65 11.3055 65 13.4317V26.5683C65 28.6945 63.8748 30.6619 62.0421 31.7399L51.0421 38.2105C49.1644 39.315 46.8356 39.315 44.9579 38.2105L33.9579 31.7399C32.1252 30.6619 31 28.6945 31 26.5683V13.4317C31 11.3055 32.1252 9.33809 33.9579 8.26007L44.9579 1.78948Z" fill="black"/>
<path d="M45.4648 2.65137C46.9317 1.78851 48.7291 1.73436 50.2373 2.48926L50.5352 2.65137L61.5352 9.12207C63.0623 10.0204 64 11.6599 64 13.4316V26.5684C64 28.2295 63.1759 29.7744 61.8145 30.7012L61.5352 30.8779L50.5352 37.3486C49.0683 38.2115 47.2709 38.2656 45.7627 37.5107L45.4648 37.3486L34.4648 30.8779C32.9377 29.9796 32 28.3401 32 26.5684V13.4316C32 11.7705 32.8241 10.2256 34.1855 9.29883L34.4648 9.12207L45.4648 2.65137Z" stroke="white" stroke-opacity="0.4" stroke-width="2"/>
<path d="M54.3 13L41 26.3" stroke="white" stroke-width="2" stroke-linecap="round"/>
<path d="M56.4 20L48 28.4" stroke="white" stroke-width="2" stroke-linecap="round"/>
<path d="M80.3395 16.4531C80.2732 15.8329 79.9938 15.3499 79.5014 15.0043C79.0137 14.6586 78.3793 14.4858 77.598 14.4858C77.0488 14.4858 76.5777 14.5687 76.1847 14.7344C75.7917 14.9001 75.491 15.125 75.2827 15.4091C75.0743 15.6932 74.9678 16.0175 74.9631 16.3821C74.9631 16.6851 75.0317 16.9479 75.169 17.1705C75.3111 17.393 75.5028 17.5824 75.7443 17.7386C75.9858 17.8902 76.2533 18.018 76.5469 18.1222C76.8404 18.2263 77.1364 18.3139 77.4347 18.3849L78.7983 18.7259C79.3475 18.8537 79.8755 19.0265 80.3821 19.2443C80.8935 19.4621 81.3504 19.7367 81.7528 20.0682C82.16 20.3996 82.482 20.7997 82.7188 21.2685C82.9555 21.7372 83.0739 22.2865 83.0739 22.9162C83.0739 23.7685 82.8561 24.5189 82.4205 25.1676C81.9848 25.8116 81.3551 26.3158 80.5312 26.6804C79.7121 27.0402 78.7202 27.2202 77.5554 27.2202C76.4238 27.2202 75.4413 27.045 74.608 26.6946C73.7794 26.3442 73.1307 25.8329 72.6619 25.1605C72.1979 24.4882 71.947 23.669 71.9091 22.7031H74.5014C74.5393 23.2098 74.6955 23.6312 74.9702 23.9673C75.2448 24.3035 75.6023 24.5545 76.0426 24.7202C76.4877 24.8859 76.9848 24.9688 77.5341 24.9688C78.107 24.9688 78.6089 24.8835 79.0398 24.7131C79.4754 24.5379 79.8163 24.2964 80.0625 23.9886C80.3087 23.6761 80.4342 23.3116 80.4389 22.8949C80.4342 22.5161 80.3229 22.2036 80.1051 21.9574C79.8873 21.7064 79.5819 21.4981 79.1889 21.3324C78.8007 21.1619 78.3461 21.0104 77.8253 20.8778L76.1705 20.4517C74.9725 20.1439 74.0256 19.6776 73.3295 19.0526C72.6383 18.4228 72.2926 17.5871 72.2926 16.5455C72.2926 15.6884 72.5246 14.938 72.9886 14.294C73.4574 13.6501 74.0942 13.1506 74.8991 12.7955C75.7041 12.4356 76.6155 12.2557 77.6335 12.2557C78.6657 12.2557 79.5701 12.4356 80.3466 12.7955C81.1278 13.1506 81.741 13.6454 82.1861 14.2798C82.6312 14.9096 82.8608 15.634 82.875 16.4531H80.3395ZM87.8803 20.608V27H85.3093V12.4545H87.8235V17.9446H87.9513C88.207 17.3291 88.6024 16.8437 89.1374 16.4886C89.6772 16.1288 90.3638 15.9489 91.1971 15.9489C91.9547 15.9489 92.6152 16.1075 93.1786 16.4247C93.7421 16.742 94.1777 17.206 94.4854 17.8168C94.7979 18.4276 94.9542 19.1733 94.9542 20.054V27H92.3832V20.4517C92.3832 19.7178 92.1938 19.1473 91.815 18.7401C91.4409 18.3281 90.9154 18.1222 90.2383 18.1222C89.7837 18.1222 89.3765 18.2216 89.0167 18.4205C88.6616 18.6146 88.3822 18.8963 88.1786 19.2656C87.9798 19.6349 87.8803 20.0824 87.8803 20.608ZM100.714 27.2202C100.023 27.2202 99.4002 27.0971 98.8462 26.8509C98.297 26.5999 97.8614 26.2306 97.5394 25.7429C97.2222 25.2552 97.0636 24.6539 97.0636 23.9389C97.0636 23.3234 97.1772 22.8144 97.4045 22.4119C97.6317 22.0095 97.9419 21.6875 98.3349 21.446C98.7279 21.2045 99.1706 21.0223 99.663 20.8991C100.16 20.7713 100.674 20.679 101.204 20.6222C101.843 20.5559 102.362 20.4967 102.76 20.4446C103.157 20.3878 103.446 20.3026 103.626 20.1889C103.811 20.0705 103.903 19.8883 103.903 19.642V19.5994C103.903 19.0644 103.744 18.6501 103.427 18.3565C103.11 18.063 102.653 17.9162 102.056 17.9162C101.427 17.9162 100.927 18.0535 100.558 18.3281C100.193 18.6027 99.9471 18.9271 99.8192 19.3011L97.4187 18.9602C97.6081 18.2973 97.9206 17.7434 98.3562 17.2983C98.7918 16.8485 99.3245 16.5123 99.9542 16.2898C100.584 16.0625 101.28 15.9489 102.042 15.9489C102.568 15.9489 103.091 16.0104 103.612 16.1335C104.133 16.2566 104.609 16.4602 105.039 16.7443C105.47 17.0237 105.816 17.4048 106.076 17.8878C106.342 18.3707 106.474 18.9744 106.474 19.6989V27H104.002V25.5014H103.917C103.761 25.8045 103.541 26.0885 103.257 26.3537C102.977 26.6141 102.625 26.8248 102.199 26.9858C101.777 27.142 101.282 27.2202 100.714 27.2202ZM101.382 25.331C101.898 25.331 102.345 25.2292 102.724 25.0256C103.103 24.8172 103.394 24.5426 103.598 24.2017C103.806 23.8608 103.91 23.4891 103.91 23.0866V21.8011C103.83 21.8674 103.692 21.929 103.498 21.9858C103.309 22.0426 103.096 22.0923 102.859 22.1349C102.622 22.1776 102.388 22.2154 102.156 22.2486C101.924 22.2817 101.723 22.3101 101.552 22.3338C101.169 22.3859 100.825 22.4711 100.522 22.5895C100.219 22.7079 99.9802 22.8736 99.805 23.0866C99.6299 23.295 99.5423 23.5649 99.5423 23.8963C99.5423 24.3698 99.7151 24.7273 100.061 24.9688C100.406 25.2102 100.847 25.331 101.382 25.331ZM113.108 27.1918C112.251 27.1918 111.484 26.9716 110.806 26.5312C110.129 26.0909 109.594 25.4517 109.201 24.6136C108.808 23.7756 108.612 22.7576 108.612 21.5597C108.612 20.3475 108.811 19.3248 109.208 18.4915C109.611 17.6534 110.153 17.0213 110.835 16.5952C111.517 16.1643 112.277 15.9489 113.115 15.9489C113.754 15.9489 114.279 16.0578 114.691 16.2756C115.103 16.4886 115.43 16.7467 115.672 17.0497C115.913 17.348 116.1 17.6297 116.233 17.8949H116.339V12.4545H118.917V27H116.389V25.2812H116.233C116.1 25.5464 115.908 25.8281 115.657 26.1264C115.406 26.42 115.075 26.6709 114.663 26.8793C114.251 27.0876 113.733 27.1918 113.108 27.1918ZM113.825 25.0824C114.369 25.0824 114.833 24.9356 115.217 24.642C115.6 24.3437 115.892 23.9295 116.091 23.3991C116.289 22.8688 116.389 22.2509 116.389 21.5455C116.389 20.84 116.289 20.2268 116.091 19.706C115.896 19.1851 115.608 18.7803 115.224 18.4915C114.845 18.2027 114.379 18.0582 113.825 18.0582C113.252 18.0582 112.774 18.2074 112.39 18.5057C112.007 18.804 111.718 19.2159 111.524 19.7415C111.33 20.267 111.233 20.8684 111.233 21.5455C111.233 22.2273 111.33 22.8357 111.524 23.3707C111.723 23.901 112.014 24.3201 112.397 24.6278C112.786 24.9309 113.261 25.0824 113.825 25.0824ZM134.221 17.3622H131.565C131.489 16.9266 131.349 16.5407 131.146 16.2045C130.942 15.8636 130.689 15.5748 130.386 15.3381C130.083 15.1013 129.737 14.9238 129.349 14.8054C128.965 14.6823 128.551 14.6207 128.106 14.6207C127.315 14.6207 126.614 14.8196 126.004 15.2173C125.393 15.6103 124.915 16.188 124.569 16.9503C124.223 17.7079 124.05 18.6335 124.05 19.7273C124.05 20.84 124.223 21.7775 124.569 22.5398C124.919 23.2973 125.397 23.8703 126.004 24.2585C126.614 24.642 127.313 24.8338 128.099 24.8338C128.534 24.8338 128.942 24.777 129.32 24.6634C129.704 24.545 130.047 24.3722 130.35 24.1449C130.658 23.9176 130.916 23.6383 131.124 23.3068C131.337 22.9754 131.484 22.5966 131.565 22.1705L134.221 22.1847C134.121 22.8759 133.906 23.5246 133.575 24.1307C133.248 24.7367 132.819 25.2718 132.289 25.7358C131.759 26.1951 131.138 26.5549 130.428 26.8153C129.718 27.071 128.93 27.1989 128.063 27.1989C126.785 27.1989 125.644 26.9029 124.64 26.3111C123.636 25.7192 122.845 24.8646 122.268 23.7472C121.69 22.6297 121.401 21.2898 121.401 19.7273C121.401 18.16 121.692 16.8201 122.275 15.7074C122.857 14.59 123.65 13.7353 124.654 13.1435C125.658 12.5516 126.794 12.2557 128.063 12.2557C128.873 12.2557 129.626 12.3693 130.322 12.5966C131.018 12.8239 131.638 13.1577 132.183 13.598C132.727 14.0336 133.174 14.5687 133.525 15.2031C133.88 15.8329 134.112 16.5526 134.221 17.3622ZM148.587 12.4545V27H146.243L139.39 17.0923H139.269V27H136.634V12.4545H138.992L145.838 22.3693H145.966V12.4545H148.587Z" fill="black"/>
</svg>
